# xmcd
#
# Track frame offsets:
#	150
#	11107
#	26864
#	41996
#	56786
#	69970
#	86672
#	100519
#	110399
#	124396
#
# Disc length: 1852 seconds
#
# Revision: 0
# Processed by: cddbd v1.4PL0 Copyright (c) Steve Scherf et al.
# Submitted via: EasyCDDAExtractor 4.5.0.2
#
DISCID=88073a0a
DTITLE=Daryle Singletary - All because of you
DYEAR=1900
DGENRE=Country
TTITLE0=The Used To Be's
TTITLE1=Amen Kind Of Love
TTITLE2=My Heart Population You
TTITLE3=Hurts Don't It
TTITLE4=Liar, Liar, Heart's On Fire
TTITLE5=Even The Wind
TTITLE6=All Because Of You
TTITLE7=Redneckin'
TTITLE8=He'll Heal My Broken Heart
TTITLE9=That's What I Get For Thinkin'
EXTD=
EXTT0=
EXTT1=
EXTT2=
EXTT3=
EXTT4=
EXTT5=
EXTT6=
EXTT7=
EXTT8=
EXTT9=
PLAYORDER=
